<mxfile host="app.diagrams.net" modified="2021-09-23T19:39:43.594Z" agent="5.0 (Windows NT 10.0; Win64; x64) AppleWebKit/537.36 (KHTML, like Gecko) Chrome/93.0.4577.82 Safari/537.36 Edg/93.0.961.52" etag="zJZ1PS1zjCTZ_3vSkWX7" version="15.3.1" type="github">
  <diagram id="KGxWuzbFTWjdb0gWmU8r" name="Page-1">
    <mxGraphModel dx="1888" dy="579" grid="1" gridSize="10" guides="1" tooltips="1" connect="1" arrows="1" fold="1" page="1" pageScale="1" pageWidth="850" pageHeight="1100" math="0" shadow="0">
      <root>
        <mxCell id="0" />
        <mxCell id="1" parent="0" />
        <mxCell id="iFhskDch5UcOdrN_4pPE-3" value="" style="edgeStyle=elbowEdgeStyle;rounded=0;orthogonalLoop=1;jettySize=auto;html=1;" edge="1" parent="1" source="iFhskDch5UcOdrN_4pPE-1" target="iFhskDch5UcOdrN_4pPE-2">
          <mxGeometry relative="1" as="geometry" />
        </mxCell>
        <mxCell id="iFhskDch5UcOdrN_4pPE-1" value="WAN" style="image;html=1;image=img/lib/clip_art/networking/Cloud_128x128.png" vertex="1" parent="1">
          <mxGeometry x="-100" y="60" width="160" height="190" as="geometry" />
        </mxCell>
        <mxCell id="iFhskDch5UcOdrN_4pPE-2" value="" style="shape=waypoint;size=6;pointerEvents=1;points=[];resizable=0;rotatable=0;perimeter=centerPerimeter;snapToPoint=1;verticalAlign=top;" vertex="1" parent="1">
          <mxGeometry x="185" y="165" width="40" height="40" as="geometry" />
        </mxCell>
        <mxCell id="iFhskDch5UcOdrN_4pPE-4" value="Firewall" style="aspect=fixed;html=1;points=[];align=center;image;fontSize=12;image=img/lib/azure2/networking/Azure_Firewall_Manager.svg;" vertex="1" parent="1">
          <mxGeometry x="185" y="90" width="210" height="180" as="geometry" />
        </mxCell>
        <mxCell id="iFhskDch5UcOdrN_4pPE-5" value="Load Balancer&amp;nbsp;&lt;br&gt;IP 52.229.11.254" style="sketch=0;aspect=fixed;html=1;points=[];align=center;image;fontSize=12;image=img/lib/mscae/Load_Balancer_feature.svg;" vertex="1" parent="1">
          <mxGeometry x="540" y="95" width="170" height="170" as="geometry" />
        </mxCell>
        <mxCell id="iFhskDch5UcOdrN_4pPE-7" value="Web 1&lt;br&gt;10.0.0.5" style="aspect=fixed;perimeter=ellipsePerimeter;html=1;align=center;fontSize=12;verticalAlign=top;shadow=0;dashed=0;image;image=img/lib/cumulus/rack_cumulus_linux.svg;" vertex="1" parent="1">
          <mxGeometry x="480" y="340" width="121.26" height="144" as="geometry" />
        </mxCell>
        <mxCell id="iFhskDch5UcOdrN_4pPE-9" style="edgeStyle=elbowEdgeStyle;rounded=0;orthogonalLoop=1;jettySize=auto;html=1;" edge="1" parent="1">
          <mxGeometry relative="1" as="geometry">
            <mxPoint x="728" y="350" as="targetPoint" />
            <mxPoint x="728" y="350" as="sourcePoint" />
          </mxGeometry>
        </mxCell>
        <mxCell id="iFhskDch5UcOdrN_4pPE-8" value="Web 2&lt;br&gt;10.0.0.6" style="aspect=fixed;perimeter=ellipsePerimeter;html=1;align=center;fontSize=12;verticalAlign=top;shadow=0;dashed=0;image;image=img/lib/cumulus/rack_cumulus_linux.svg;" vertex="1" parent="1">
          <mxGeometry x="670" y="342" width="117.89" height="140" as="geometry" />
        </mxCell>
        <mxCell id="iFhskDch5UcOdrN_4pPE-10" value="Jump-Box VM&lt;br&gt;10.0.0.4&lt;hr&gt;" style="aspect=fixed;perimeter=ellipsePerimeter;html=1;align=center;fontSize=12;verticalAlign=top;shadow=0;image;image=img/lib/cumulus/rack_cumulus_linux.svg;sketch=1;" vertex="1" parent="1">
          <mxGeometry x="132.57999999999998" y="326" width="144.84" height="172" as="geometry" />
        </mxCell>
        <mxCell id="iFhskDch5UcOdrN_4pPE-15" value="" style="endArrow=none;html=1;" edge="1" parent="1">
          <mxGeometry width="50" height="50" relative="1" as="geometry">
            <mxPoint x="270" y="560" as="sourcePoint" />
            <mxPoint x="270" y="500" as="targetPoint" />
          </mxGeometry>
        </mxCell>
        <mxCell id="iFhskDch5UcOdrN_4pPE-17" value="" style="endArrow=none;html=1;" edge="1" parent="1">
          <mxGeometry width="50" height="50" relative="1" as="geometry">
            <mxPoint x="270" y="560" as="sourcePoint" />
            <mxPoint x="740" y="560" as="targetPoint" />
          </mxGeometry>
        </mxCell>
        <mxCell id="iFhskDch5UcOdrN_4pPE-32" value="SSH" style="edgeLabel;html=1;align=center;verticalAlign=middle;resizable=0;points=[];" vertex="1" connectable="0" parent="iFhskDch5UcOdrN_4pPE-17">
          <mxGeometry x="-0.6613" y="-3" relative="1" as="geometry">
            <mxPoint as="offset" />
          </mxGeometry>
        </mxCell>
        <mxCell id="iFhskDch5UcOdrN_4pPE-20" value="" style="endArrow=none;html=1;entryX=0.02;entryY=0.993;entryDx=0;entryDy=0;entryPerimeter=0;" edge="1" parent="1" target="iFhskDch5UcOdrN_4pPE-7">
          <mxGeometry width="50" height="50" relative="1" as="geometry">
            <mxPoint x="480" y="560" as="sourcePoint" />
            <mxPoint x="530" y="510" as="targetPoint" />
          </mxGeometry>
        </mxCell>
        <mxCell id="iFhskDch5UcOdrN_4pPE-21" value="" style="endArrow=none;html=1;entryX=0.892;entryY=1.001;entryDx=0;entryDy=0;entryPerimeter=0;" edge="1" parent="1" target="iFhskDch5UcOdrN_4pPE-8">
          <mxGeometry width="50" height="50" relative="1" as="geometry">
            <mxPoint x="737.89" y="560" as="sourcePoint" />
            <mxPoint x="787.89" y="510" as="targetPoint" />
          </mxGeometry>
        </mxCell>
        <mxCell id="iFhskDch5UcOdrN_4pPE-22" value="" style="endArrow=none;html=1;" edge="1" parent="1" target="iFhskDch5UcOdrN_4pPE-4">
          <mxGeometry width="50" height="50" relative="1" as="geometry">
            <mxPoint x="185" y="326" as="sourcePoint" />
            <mxPoint x="180" y="220" as="targetPoint" />
            <Array as="points">
              <mxPoint x="200" y="170" />
            </Array>
          </mxGeometry>
        </mxCell>
        <mxCell id="iFhskDch5UcOdrN_4pPE-31" value="SSH" style="edgeLabel;html=1;align=center;verticalAlign=middle;resizable=0;points=[];" vertex="1" connectable="0" parent="iFhskDch5UcOdrN_4pPE-22">
          <mxGeometry x="-0.2187" y="-2" relative="1" as="geometry">
            <mxPoint as="offset" />
          </mxGeometry>
        </mxCell>
        <mxCell id="iFhskDch5UcOdrN_4pPE-23" value="" style="endArrow=none;html=1;entryX=0.019;entryY=0.536;entryDx=0;entryDy=0;entryPerimeter=0;" edge="1" parent="1" target="iFhskDch5UcOdrN_4pPE-5">
          <mxGeometry width="50" height="50" relative="1" as="geometry">
            <mxPoint x="520" y="342" as="sourcePoint" />
            <mxPoint x="570" y="292" as="targetPoint" />
          </mxGeometry>
        </mxCell>
        <mxCell id="iFhskDch5UcOdrN_4pPE-25" value="" style="endArrow=none;html=1;" edge="1" parent="1">
          <mxGeometry width="50" height="50" relative="1" as="geometry">
            <mxPoint x="450" y="640" as="sourcePoint" />
            <mxPoint x="450" y="310" as="targetPoint" />
          </mxGeometry>
        </mxCell>
        <mxCell id="iFhskDch5UcOdrN_4pPE-26" value="" style="endArrow=none;html=1;entryX=0.993;entryY=0.513;entryDx=0;entryDy=0;entryPerimeter=0;" edge="1" parent="1" target="iFhskDch5UcOdrN_4pPE-5">
          <mxGeometry width="50" height="50" relative="1" as="geometry">
            <mxPoint x="720" y="340" as="sourcePoint" />
            <mxPoint x="770" y="290" as="targetPoint" />
          </mxGeometry>
        </mxCell>
        <mxCell id="iFhskDch5UcOdrN_4pPE-27" value="" style="endArrow=none;html=1;" edge="1" parent="1" target="iFhskDch5UcOdrN_4pPE-5">
          <mxGeometry width="50" height="50" relative="1" as="geometry">
            <mxPoint x="390" y="190" as="sourcePoint" />
            <mxPoint x="440" y="140" as="targetPoint" />
          </mxGeometry>
        </mxCell>
        <mxCell id="iFhskDch5UcOdrN_4pPE-28" value="HTTP (p 80)" style="edgeLabel;html=1;align=center;verticalAlign=middle;resizable=0;points=[];" vertex="1" connectable="0" parent="iFhskDch5UcOdrN_4pPE-27">
          <mxGeometry x="-0.1578" y="-5" relative="1" as="geometry">
            <mxPoint as="offset" />
          </mxGeometry>
        </mxCell>
        <mxCell id="iFhskDch5UcOdrN_4pPE-29" value="" style="endArrow=none;html=1;" edge="1" parent="1">
          <mxGeometry width="50" height="50" relative="1" as="geometry">
            <mxPoint x="-40" y="450" as="sourcePoint" />
            <mxPoint x="-40" y="200" as="targetPoint" />
          </mxGeometry>
        </mxCell>
        <mxCell id="iFhskDch5UcOdrN_4pPE-30" value="SSH&lt;br&gt;HTTP" style="edgeLabel;html=1;align=center;verticalAlign=middle;resizable=0;points=[];" vertex="1" connectable="0" parent="iFhskDch5UcOdrN_4pPE-29">
          <mxGeometry x="-0.1504" y="1" relative="1" as="geometry">
            <mxPoint as="offset" />
          </mxGeometry>
        </mxCell>
        <mxCell id="iFhskDch5UcOdrN_4pPE-33" value="Load Balancer Backend Pool" style="text;html=1;align=center;verticalAlign=middle;resizable=0;points=[];autosize=1;strokeColor=none;fillColor=none;" vertex="1" parent="1">
          <mxGeometry x="475" y="570" width="170" height="20" as="geometry" />
        </mxCell>
        <mxCell id="iFhskDch5UcOdrN_4pPE-34" value="DVWA Containers" style="text;html=1;align=center;verticalAlign=middle;resizable=0;points=[];autosize=1;strokeColor=none;fillColor=none;" vertex="1" parent="1">
          <mxGeometry x="555" y="530" width="110" height="20" as="geometry" />
        </mxCell>
        <mxCell id="iFhskDch5UcOdrN_4pPE-35" value="" style="endArrow=none;html=1;" edge="1" parent="1">
          <mxGeometry width="50" height="50" relative="1" as="geometry">
            <mxPoint x="450" y="310" as="sourcePoint" />
            <mxPoint x="800" y="310" as="targetPoint" />
          </mxGeometry>
        </mxCell>
        <mxCell id="iFhskDch5UcOdrN_4pPE-36" value="" style="endArrow=none;html=1;" edge="1" parent="1">
          <mxGeometry width="50" height="50" relative="1" as="geometry">
            <mxPoint x="800.7999267578125" y="640" as="sourcePoint" />
            <mxPoint x="800" y="310" as="targetPoint" />
          </mxGeometry>
        </mxCell>
        <mxCell id="iFhskDch5UcOdrN_4pPE-37" value="" style="endArrow=none;html=1;" edge="1" parent="1">
          <mxGeometry width="50" height="50" relative="1" as="geometry">
            <mxPoint x="450" y="640" as="sourcePoint" />
            <mxPoint x="800" y="640" as="targetPoint" />
          </mxGeometry>
        </mxCell>
        <mxCell id="iFhskDch5UcOdrN_4pPE-38" value="" style="endArrow=none;html=1;" edge="1" parent="1">
          <mxGeometry width="50" height="50" relative="1" as="geometry">
            <mxPoint x="80" y="680" as="sourcePoint" />
            <mxPoint x="80" y="40" as="targetPoint" />
          </mxGeometry>
        </mxCell>
        <mxCell id="iFhskDch5UcOdrN_4pPE-39" value="" style="endArrow=none;html=1;" edge="1" parent="1">
          <mxGeometry width="50" height="50" relative="1" as="geometry">
            <mxPoint x="80" y="40" as="sourcePoint" />
            <mxPoint x="873.5999755859375" y="40" as="targetPoint" />
          </mxGeometry>
        </mxCell>
        <mxCell id="iFhskDch5UcOdrN_4pPE-42" value="Azure Virtual Subnet 10.0.0.0/24" style="edgeLabel;html=1;align=center;verticalAlign=middle;resizable=0;points=[];" vertex="1" connectable="0" parent="iFhskDch5UcOdrN_4pPE-39">
          <mxGeometry x="-0.127" y="-5" relative="1" as="geometry">
            <mxPoint x="24" y="25" as="offset" />
          </mxGeometry>
        </mxCell>
        <mxCell id="iFhskDch5UcOdrN_4pPE-40" value="" style="endArrow=none;html=1;" edge="1" parent="1">
          <mxGeometry width="50" height="50" relative="1" as="geometry">
            <mxPoint x="880" y="680.7999877929688" as="sourcePoint" />
            <mxPoint x="880" y="40" as="targetPoint" />
          </mxGeometry>
        </mxCell>
        <mxCell id="iFhskDch5UcOdrN_4pPE-41" value="" style="endArrow=none;html=1;" edge="1" parent="1">
          <mxGeometry width="50" height="50" relative="1" as="geometry">
            <mxPoint x="82.58000000000001" y="680" as="sourcePoint" />
            <mxPoint x="880" y="680" as="targetPoint" />
          </mxGeometry>
        </mxCell>
        <mxCell id="iFhskDch5UcOdrN_4pPE-43" value="Azure Virtual Network 10.0.0.0/16" style="text;html=1;align=center;verticalAlign=middle;resizable=0;points=[];autosize=1;strokeColor=none;fillColor=none;" vertex="1" parent="1">
          <mxGeometry x="360" y="10" width="190" height="20" as="geometry" />
        </mxCell>
        <mxCell id="iFhskDch5UcOdrN_4pPE-44" value="Work Station" style="verticalLabelPosition=bottom;sketch=0;aspect=fixed;html=1;verticalAlign=top;strokeColor=none;align=center;outlineConnect=0;shape=mxgraph.citrix.desktop;rounded=0;" vertex="1" parent="1">
          <mxGeometry x="-90" y="420" width="120" height="132.13" as="geometry" />
        </mxCell>
      </root>
    </mxGraphModel>
  </diagram>
</mxfile>
